<?xml version="1.0" encoding="utf-8"?>
<!-- Generator: Adobe Illustrator 16.0.0, SVG Export Plug-In . SVG Version: 6.00 Build 0)  -->
<!DOCTYPE svg PUBLIC "-//W3C//DTD SVG 1.1//EN" "http://www.w3.org/Graphics/SVG/1.1/DTD/svg11.dtd">
<svg version="1.1" id="Layer_1" xmlns="http://www.w3.org/2000/svg" xmlns:xlink="http://www.w3.org/1999/xlink" x="0px" y="0px"
	 width="1127px" height="292px" viewBox="0 0 1127 292" enable-background="new 0 0 1127 292" xml:space="preserve">
<g>
	<path fill-rule="evenodd" clip-rule="evenodd" fill="none" d="M46.405,91.016c-0.301-0.717-1.027-1.842-1.501-1.196
		c-0.952,1.297-0.59,2.926,0.411,4.28c1.276,11.21,5.719,21.458,10.295,31.528c12.604,27.735,33.024,46.085,63.632,52.199
		c18.282,3.652,36.766,2.719,55.17,3.3c17.468,0.551,34.964-0.141,52.376,2.143c19.133,2.508,37.376,7.649,54.344,17.031
		c7.848,4.339,14.888,9.813,21.922,15.645c1.33-2.757-0.167-4.59-1.02-6.352c-2.206-4.556-4.654-8.995-7.075-13.444
		c-18.012-33.106-45.481-52.578-82.902-58.272c-20.616-3.138-41.378-2.39-62.068-3.443c-12.881-0.655-25.803-0.605-38.567-2.714
		C84.102,127.208,62.292,113.823,46.405,91.016z M964.543,233.431c16.343,1.199,32.346,0.923,48.34,0.947
		c0.772,0.001,1.78,0.167,1.971-0.905c0.219-1.226-0.725-1.722-1.704-1.968c-2.85-0.716-5.709-1.397-8.574-2.044
		c-7.404-1.67-12.94-5.336-14.511-13.355c-0.908-4.645-2.061-9.248-2.806-13.917c-6.038-37.803-9.188-75.932-12.809-114.007
		c-0.79-8.297-1.58-16.594-2.358-24.893c-0.092-0.973-0.045-2.111-1.189-2.401c-1.281-0.325-1.578,0.979-2.014,1.74
		c-2.195,3.824-4.344,7.677-6.425,11.564c-18.811,35.142-34.469,71.762-50.753,108.09c-3.071,6.854-6.281,13.644-9.781,21.229
		c-0.984-1.993-1.541-2.977-1.972-4.013c-15.138-36.36-33.386-71.192-52.044-105.821c-5.496-10.203-11.017-20.393-16.558-30.572
		c-0.52-0.955-0.813-2.505-2.106-2.422c-1.871,0.12-1.104,2.019-1.535,3.119c-0.175,0.447-0.2,0.959-0.251,1.447
		c-3.04,28.939-5.935,57.894-9.154,86.813c-2.459,22.092-5.194,44.155-8.074,66.196c-1.295,9.911-3.389,11.637-13.294,13.254
		c-1.107,0.182-2.852-0.316-2.56,2.427c15.991-2.076,31.972,0.992,49.185,0.477c-3.377-3.412-6.703-3.79-9.614-4.869
		c-5.45-2.021-8.077-5.636-7.771-11.521c0.278-5.387,0.193-10.791,0.41-16.182c0.928-23.057,3.958-45.912,6.641-68.8
		c0.802-6.837,1.692-13.664,2.7-21.75c1.135,2.063,1.622,2.886,2.051,3.738c11.591,23.042,21.322,46.941,32.316,70.261
		c7.54,15.993,15.87,31.478,26.164,45.884c2.014,2.816,3.278,3.381,4.813-0.261c1.327-3.152,2.931-6.19,4.434-9.268
		c17.181-35.182,32.187-71.389,50.104-106.221c0.733-1.424,1.144-3.155,2.901-4.225c2.616,23.13,5.771,45.817,7.567,68.612
		C967.68,197.533,971.938,215.516,964.543,233.431z M469.829,234.496c-0.281-2.729-1.787-2.319-2.733-2.551
		c-9.283-2.271-10.621-4.395-8.333-13.88c3.798-15.746,9.486-30.873,15.138-46.014c0.799-2.143,1.939-3.014,4.281-2.998
		c13.909,0.091,27.818,0.089,41.727,0c2.335-0.015,3.429,0.804,4.264,2.997c6.556,17.224,13.225,34.404,19.928,51.571
		c0.86,2.204,0.649,3.365-1.739,4.476c-3.347,1.558-7.293,2.275-9.653,6.078c18.812-3.132,37.661,0.335,57.304-0.486
		c-1.087-1.388-1.231-1.761-1.475-1.845c-0.606-0.209-1.253-0.331-1.893-0.407c-10.418-1.238-17.839-6.471-22.294-16.106
		c-4.518-9.771-9.569-19.299-14.029-29.096c-17.728-38.935-32.31-79.117-47.079-119.223c-0.575-1.561-0.562-3.575-2.59-4.293
		c-1.341,1.05-1.502,2.607-2.003,3.955c-4.772,12.839-9.538,25.682-14.229,38.551c-13.071,35.86-25.088,72.1-39.115,107.618
		c-4.155,10.521-11.296,16.875-22.208,19.297c-1.075,0.238-2.784-0.3-3.129,2.522C436.654,233.032,453.173,232.471,469.829,234.496z
		 M591.91,65.838c3.433,3.196,3.433,3.196,10.453,5.094c7.098,1.919,8.72,3.993,8.761,11.416c0.038,7.038,0.009,14.076,0.009,21.114
		c0,37.645,0.011,75.289-0.008,112.935c-0.005,10.219-2.215,12.908-12.063,15.293c-1.247,0.302-3.003-0.035-4.066,2.988
		c19.368-1.438,38.226-2.576,57.62,0.148c-0.913-2.504-1.823-2.346-2.587-2.494c-9.88-1.912-17.861-10.439-18.013-20.444
		c-0.304-19.964-0.061-39.936-0.141-59.903c-0.01-2.333,0.674-3.117,3.043-3.083c8.836,0.125,17.687-0.205,26.511,0.147
		c10.903,0.437,15.612,5.337,16.657,16.444c0.073,0.776-0.093,1.671,1.03,2.063c0.964-0.021,1.222-0.851,1.386-1.604
		c2.171-9.917,3.471-19.958,4.178-30.078c0.054-0.76,0.082-1.869-0.362-2.247c-0.959-0.815-1.757,0.198-2.5,0.785
		c-2.674,2.113-5.074,4.83-8.827,4.847c-12.767,0.058-25.533-0.007-38.3,0.059c-2.124,0.011-2.813-0.738-2.807-2.853
		c0.063-18.495,0.035-36.99,0.037-55.485c0-1.302-0.186-2.581,1.805-2.761c9.601-0.867,19.185-2.498,28.789-2.607
		c13.491-0.152,18.604,4.626,20.478,17.114c0.135,0.906-0.164,2.194,1.299,2.105c0.917-0.055,1.151-1.035,1.315-1.849
		c0.933-4.641,2.039-9.256,2.738-13.933c0.763-5.102,2.42-10.104,2.358-14.526C657.862,68.405,625.258,65.429,591.91,65.838z
		 M705.262,194.264c-1.387,6.066-2.901,11.468-3.824,16.968c-2.327,13.856,2.902,22.488,16.667,25.081
		c24.354,4.589,44.638-3.686,61.101-21.782c4.57-5.023,7.56-10.966,8.776-17.766c2.909-16.252-3.911-28.976-14.552-40.266
		c-7.53-7.989-16.135-14.802-24.526-21.84c-8.405-7.051-16.729-14.167-22.194-23.952c-6.852-12.264-4.206-26.903,6.331-34.785
		c11.676-8.731,26.822-7.468,36.821,3.071c4.16,4.385,6.479,9.734,8.104,15.45c0.251,0.883,0.026,2.267,1.334,2.274
		c1.622,0.009,1.377-1.597,1.511-2.579c0.791-5.828,1.648-11.656,2.146-17.512c1.089-12.824,1.047-13.253-11.967-14.524
		c-20.08-1.961-39.152,1.046-55.525,14.044c-9.766,7.753-14.006,17.906-11.874,30.271c1.391,8.063,5.769,14.855,10.633,21.254
		c9.354,12.304,21.195,22.21,32.128,32.99c8.511,8.393,16.932,16.838,22.146,27.847c5.331,11.259,3.135,21.978-6.477,29.918
		c-9.718,8.03-20.975,10.367-33.127,7.521c-13.41-3.142-20.489-11.767-21.835-25.479
		C706.883,198.688,707.659,196.568,705.262,194.264z M1103.195,97.205c0.704-0.563,1.118-0.723,1.164-0.956
		c1.941-9.795,2.713-19.736,3.736-29.648c0.222-2.151-1.251-2.431-2.645-2.732c-21.764-4.711-42.678-2.968-61.809,9.236
		c-11.592,7.395-18.11,17.856-16.071,32.226c1.233,8.689,5.835,15.886,11.015,22.668c9.084,11.891,20.517,21.53,31.135,31.944
		c8.655,8.486,17.271,16.991,22.671,28.094c5.805,11.937,3.194,23.397-7.381,31.341c-9.59,7.204-20.431,9.325-32.031,6.572
		c-13.396-3.179-20.383-11.695-21.798-25.521c-0.179-1.748,0.595-3.882-1.824-6.115c-1.387,6.076-2.918,11.492-3.824,17.012
		c-2.285,13.901,2.955,22.265,16.78,25.041c22.032,4.425,40.936-2.747,57.136-17.613c6.487-5.952,11.114-13.223,12.674-22.149
		c2.802-16.044-3.849-28.692-14.372-39.881c-7.527-8.001-16.118-14.841-24.525-21.872c-8.294-6.936-16.563-13.913-22.028-23.487
		c-8.135-14.256-4.098-30.261,9.446-37.692c14.251-7.819,30.741-2.553,38.173,12.353
		C1100.528,89.458,1101.643,93.188,1103.195,97.205z M342.217,194.017c-1.503,6.53-3.194,12.104-4.016,17.802
		c-1.985,13.763,3.281,21.229,16.897,24.669c7.941,2.007,15.897,1.557,23.804-0.162c10.522-2.288,20.146-6.573,28.616-13.31
		c21.723-17.278,24.084-41.978,5.937-63.026c-8.371-9.708-18.466-17.562-28.217-25.777c-8.9-7.498-17.685-15.084-22.848-25.889
		c-4.927-10.311-2.904-22.606,5.055-30.354c8.137-7.92,21.57-10.106,31.368-5.083c8.781,4.502,13.364,12.153,15.918,21.313
		c0.291,1.042,0.128,2.592,1.681,2.522c1.24-0.056,1.103-1.424,1.212-2.346c1.021-8.599,1.894-17.217,3.081-25.792
		c0.475-3.433-0.933-4.496-4.01-5.139c-7.578-1.585-15.22-2.384-22.908-1.844c-15.075,1.059-29.446,4.473-41.377,14.497
		c-13.237,11.122-16.012,24.99-8.328,40.393c2.715,5.441,6.094,10.452,10.05,15.046c8.769,10.182,18.774,19.136,28.417,28.451
		c8.831,8.531,17.478,17.233,22.845,28.545c5.298,11.168,3.042,22.079-6.536,29.942c-9.747,8.002-21.013,10.346-33.174,7.45
		c-13.686-3.258-21.098-12.548-21.851-26.519C343.76,198.024,344.337,196.502,342.217,194.017z"/>
	<path fill-rule="evenodd" clip-rule="evenodd" fill="#93C858" d="M11.063,4.576c2.302-0.017,2.863,1.993,3.754,3.431
		c17.973,29,44.854,42.651,78.048,45.884c18.756,1.827,37.556,1.504,56.339,2.125c18.623,0.615,37.187,1.822,55.278,6.947
		c30.245,8.568,51.591,27.923,66.902,54.701c4.019,7.028,7.631,14.246,9.689,22.477c-3.057-2.308-6.137-4.584-9.166-6.928
		c-21.458-16.612-46.06-24.908-72.795-27.599c-26.747-2.692-53.606-1.199-80.395-2.214c-15.22-0.577-30.285-2.373-44.647-7.972
		c-25.489-9.937-41.127-29.225-51.178-53.824c-4.269-10.447-7.841-21.116-10.31-32.149c-0.292-1.304,0.135-3.062-1.519-3.897
		C11.063,5.23,11.063,4.903,11.063,4.576z"/>
	<path fill-rule="evenodd" clip-rule="evenodd" fill="#B3D68D" d="M330.249,290.37c-20.271-18.914-44.881-27.831-71.869-31.551
		c-27.013-3.724-54.169-2.485-81.282-2.811c-13.629-0.163-27.024-1.725-40.039-5.975c-19.98-6.525-35.217-18.986-46.094-36.858
		c-9.102-14.957-14.563-31.352-18.708-48.238c-0.249-1.016-0.032-2.146-0.032-3.667c3.492,4.626,6.655,8.942,9.948,13.156
		c13.874,17.752,32.498,27.259,54.263,31.571c16.933,3.354,34.047,3.406,51.188,4.085c20.183,0.8,40.461,0.132,60.481,4.395
		c31.918,6.798,56.056,23.958,72.652,51.984c4.59,7.752,8.772,15.688,12.438,23.908C332.213,290.37,331.231,290.37,330.249,290.37z"
		/>
	<path fill-rule="evenodd" clip-rule="evenodd" fill="#36154A" d="M964.543,233.431c7.395-17.915,3.137-35.897,1.74-53.615
		c-1.797-22.795-4.951-45.482-7.567-68.612c-1.758,1.069-2.168,2.8-2.901,4.225c-17.918,34.832-32.924,71.039-50.104,106.221
		c-1.503,3.077-3.106,6.115-4.434,9.268c-1.535,3.642-2.8,3.077-4.813,0.261c-10.294-14.406-18.624-29.891-26.164-45.884
		c-10.994-23.32-20.726-47.219-32.316-70.261c-0.429-0.853-0.916-1.675-2.051-3.738c-1.008,8.086-1.898,14.913-2.7,21.75
		c-2.683,22.888-5.713,45.744-6.641,68.8c-0.217,5.391-0.132,10.795-0.41,16.182c-0.306,5.885,2.321,9.5,7.771,11.521
		c2.911,1.079,6.237,1.457,9.614,4.869c-17.213,0.516-33.193-2.553-49.185-0.477c-0.292-2.743,1.452-2.245,2.56-2.427
		c9.905-1.617,11.999-3.343,13.294-13.254c2.88-22.041,5.615-44.104,8.074-66.196c3.22-28.919,6.114-57.874,9.154-86.813
		c0.051-0.488,0.076-1,0.251-1.447c0.431-1.1-0.336-3,1.535-3.119c1.293-0.083,1.587,1.467,2.106,2.422
		c5.541,10.179,11.062,20.369,16.558,30.572c18.658,34.629,36.906,69.461,52.044,105.821c0.431,1.036,0.987,2.02,1.972,4.013
		c3.5-7.585,6.71-14.375,9.781-21.229c16.284-36.328,31.942-72.948,50.753-108.09c2.081-3.887,4.229-7.74,6.425-11.564
		c0.436-0.761,0.732-2.065,2.014-1.74c1.145,0.29,1.098,1.428,1.189,2.401c0.778,8.298,1.568,16.595,2.358,24.893
		c3.62,38.075,6.771,76.205,12.809,114.007c0.745,4.669,1.897,9.272,2.806,13.917c1.57,8.02,7.106,11.686,14.511,13.355
		c2.865,0.646,5.725,1.328,8.574,2.044c0.979,0.246,1.923,0.742,1.704,1.968c-0.19,1.072-1.198,0.906-1.971,0.905
		C996.889,234.354,980.886,234.63,964.543,233.431z"/>
	<path fill-rule="evenodd" clip-rule="evenodd" fill="#A2CF75" d="M46.405,91.016c15.888,22.807,37.697,36.193,65.017,40.705
		c12.764,2.108,25.686,2.059,38.567,2.714c20.689,1.053,41.452,0.305,62.068,3.443c37.421,5.695,64.89,25.166,82.902,58.272
		c2.42,4.449,4.869,8.889,7.075,13.444c0.853,1.762,2.35,3.595,1.02,6.352c-7.034-5.831-14.074-11.306-21.922-15.645
		c-16.968-9.382-35.21-14.523-54.344-17.031c-17.412-2.283-34.908-1.592-52.376-2.143c-18.404-0.581-36.888,0.353-55.17-3.3
		c-30.607-6.114-51.028-24.464-63.632-52.199c-4.576-10.07-9.019-20.318-10.294-31.529C45.591,93.04,45.197,91.745,46.405,91.016z"
		/>
	<path fill-rule="evenodd" clip-rule="evenodd" fill="#36154A" d="M469.829,234.496c-16.656-2.025-33.174-1.464-49.862,0.166
		c0.345-2.822,2.054-2.284,3.129-2.522c10.912-2.422,18.053-8.776,22.208-19.297c14.027-35.519,26.044-71.758,39.115-107.618
		c4.691-12.869,9.457-25.711,14.229-38.551c0.501-1.348,0.663-2.905,2.003-3.955c2.028,0.718,2.016,2.733,2.59,4.293
		c14.77,40.106,29.352,80.289,47.079,119.223c4.46,9.797,9.512,19.324,14.029,29.096c4.455,9.636,11.876,14.868,22.294,16.106
		c0.64,0.076,1.286,0.198,1.893,0.407c0.243,0.084,0.388,0.457,1.475,1.845c-19.644,0.821-38.493-2.646-57.304,0.486
		c2.359-3.803,6.306-4.521,9.653-6.078c2.388-1.11,2.599-2.271,1.739-4.476c-6.703-17.167-13.372-34.348-19.928-51.571
		c-0.835-2.193-1.929-3.012-4.264-2.997c-13.909,0.089-27.818,0.091-41.727,0c-2.342-0.016-3.481,0.855-4.281,2.998
		c-5.651,15.141-11.34,30.268-15.138,46.014c-2.288,9.485-0.949,11.608,8.333,13.88
		C468.042,232.177,469.548,231.767,469.829,234.496z M518.983,158.751c-6.462-21.077-12.836-41.864-19.209-62.653
		c-0.354-0.027-0.708-0.054-1.063-0.081c-6.706,20.834-13.413,41.669-20.194,62.733
		C492.099,158.751,505.318,158.751,518.983,158.751z"/>
	<path fill-rule="evenodd" clip-rule="evenodd" fill="#36154A" d="M591.91,65.838c33.348-0.409,65.952,2.567,98.793-1.315
		c0.062,4.422-1.596,9.424-2.358,14.526c-0.699,4.677-1.806,9.292-2.738,13.933c-0.164,0.814-0.398,1.794-1.315,1.849
		c-1.463,0.088-1.164-1.199-1.299-2.105c-1.874-12.488-6.986-17.267-20.478-17.114c-9.604,0.109-19.188,1.74-28.789,2.607
		c-1.99,0.18-1.805,1.459-1.805,2.761c-0.002,18.495,0.025,36.99-0.037,55.485c-0.007,2.114,0.683,2.863,2.807,2.853
		c12.767-0.066,25.533-0.001,38.3-0.059c3.753-0.017,6.153-2.734,8.827-4.847c0.743-0.587,1.541-1.601,2.5-0.785
		c0.444,0.378,0.416,1.486,0.362,2.247c-0.707,10.12-2.007,20.161-4.178,30.078c-0.164,0.754-0.422,1.584-1.386,1.604
		c-1.123-0.392-0.957-1.286-1.03-2.063c-1.045-11.107-5.754-16.008-16.657-16.444c-8.824-0.353-17.675-0.022-26.511-0.147
		c-2.369-0.034-3.053,0.75-3.043,3.083c0.08,19.968-0.163,39.939,0.141,59.903c0.151,10.005,8.133,18.532,18.013,20.444
		c0.764,0.148,1.674-0.01,2.587,2.494c-19.395-2.725-38.252-1.587-57.62-0.148c1.063-3.023,2.819-2.687,4.066-2.988
		c9.849-2.385,12.059-5.074,12.063-15.293c0.019-37.646,0.008-75.29,0.008-112.935c0-7.038,0.029-14.076-0.009-21.114
		c-0.041-7.423-1.663-9.497-8.761-11.416C595.343,69.034,595.343,69.034,591.91,65.838z"/>
	<path fill-rule="evenodd" clip-rule="evenodd" fill="#36154A" d="M705.262,194.264c2.397,2.305,1.621,4.425,1.796,6.203
		c1.346,13.713,8.425,22.338,21.835,25.479c12.152,2.847,23.409,0.51,33.127-7.521c9.611-7.94,11.808-18.659,6.477-29.918
		c-5.214-11.009-13.635-19.454-22.146-27.847c-10.933-10.78-22.774-20.687-32.128-32.99c-4.864-6.399-9.242-13.191-10.633-21.254
		c-2.132-12.364,2.108-22.517,11.874-30.271c16.373-12.999,35.445-16.005,55.525-14.044c13.014,1.271,13.056,1.701,11.967,14.524
		c-0.498,5.856-1.355,11.685-2.146,17.512c-0.134,0.982,0.111,2.588-1.511,2.579c-1.308-0.008-1.083-1.391-1.334-2.274
		c-1.625-5.715-3.943-11.065-8.104-15.45c-9.999-10.539-25.146-11.802-36.821-3.071c-10.537,7.881-13.183,22.521-6.331,34.785
		c5.466,9.784,13.789,16.901,22.194,23.952c8.392,7.039,16.996,13.851,24.526,21.84c10.641,11.29,17.461,24.014,14.552,40.266
		c-1.217,6.8-4.206,12.742-8.776,17.766c-16.463,18.097-36.747,26.371-61.101,21.782c-13.765-2.593-18.994-11.225-16.667-25.081
		C702.36,205.731,703.875,200.33,705.262,194.264z"/>
	<path fill-rule="evenodd" clip-rule="evenodd" fill="#36154A" d="M1103.195,97.205c-1.553-4.017-2.667-7.747-4.379-11.18
		c-7.432-14.905-23.922-20.172-38.173-12.353c-13.544,7.431-17.581,23.437-9.446,37.692c5.465,9.574,13.734,16.551,22.028,23.487
		c8.407,7.031,16.998,13.871,24.525,21.872c10.523,11.188,17.174,23.837,14.372,39.881c-1.56,8.927-6.187,16.197-12.674,22.149
		c-16.2,14.866-35.104,22.038-57.136,17.613c-13.825-2.776-19.065-11.14-16.78-25.041c0.906-5.52,2.438-10.936,3.824-17.012
		c2.419,2.233,1.646,4.367,1.824,6.115c1.415,13.825,8.401,22.342,21.798,25.521c11.601,2.753,22.441,0.632,32.031-6.572
		c10.575-7.943,13.186-19.404,7.381-31.341c-5.4-11.103-14.016-19.607-22.671-28.094c-10.618-10.414-22.051-20.054-31.135-31.944
		c-5.18-6.782-9.781-13.979-11.015-22.668c-2.039-14.37,4.479-24.831,16.071-32.226c19.131-12.205,40.045-13.947,61.809-9.236
		c1.394,0.301,2.866,0.581,2.645,2.732c-1.023,9.912-1.795,19.854-3.736,29.648C1104.313,96.482,1103.899,96.643,1103.195,97.205z"
		/>
	<path fill-rule="evenodd" clip-rule="evenodd" fill="#36154A" d="M342.217,194.017c2.12,2.485,1.543,4.008,1.617,5.388
		c0.753,13.971,8.165,23.261,21.851,26.519c12.161,2.896,23.427,0.552,33.174-7.45c9.578-7.863,11.834-18.774,6.536-29.942
		c-5.367-11.312-14.014-20.014-22.845-28.545c-9.643-9.314-19.648-18.269-28.417-28.451c-3.956-4.594-7.335-9.605-10.05-15.046
		c-7.684-15.403-4.909-29.271,8.328-40.393c11.931-10.023,26.302-13.438,41.377-14.497c7.688-0.54,15.331,0.259,22.908,1.844
		c3.078,0.644,4.485,1.707,4.01,5.139c-1.187,8.575-2.059,17.193-3.081,25.792c-0.11,0.922,0.027,2.29-1.212,2.346
		c-1.553,0.07-1.391-1.48-1.681-2.522c-2.554-9.159-7.137-16.811-15.918-21.313c-9.798-5.023-23.231-2.837-31.368,5.083
		c-7.959,7.748-9.982,20.043-5.055,30.354c5.163,10.805,13.948,18.391,22.848,25.889c9.751,8.215,19.846,16.069,28.217,25.777
		c18.148,21.049,15.786,45.748-5.937,63.026c-8.471,6.736-18.094,11.021-28.616,13.31c-7.907,1.719-15.863,2.169-23.804,0.162
		c-13.616-3.44-18.883-10.906-16.897-24.669C339.023,206.12,340.714,200.547,342.217,194.017z"/>
	<path fill-rule="evenodd" clip-rule="evenodd" fill="#BBDC99" d="M46.405,91.016c-1.208,0.729-0.813,2.024-1.089,3.083
		c-1.002-1.353-1.364-2.982-0.412-4.279C45.377,89.173,46.104,90.299,46.405,91.016z"/>
	<path fill-rule="evenodd" clip-rule="evenodd" fill="none" d="M518.983,158.751c-13.665,0-26.884,0-40.466,0
		c6.781-21.064,13.488-41.899,20.194-62.733c0.354,0.027,0.709,0.054,1.063,0.081C506.147,116.887,512.521,137.674,518.983,158.751z
		"/>
</g>
</svg>
